<svg version="1.1" id="Layer_1" xmlns="http://www.w3.org/2000/svg" x="0" y="0" viewBox="0 0 241.715 94.443" xml:space="preserve"><style>.st0{fill:#4ac1e0}</style><path class="st0" d="M36.771 28.558c-5.785 3.271-11.195 4.655-12.08 3.092-.881-1.562 3.096-5.481 8.883-8.75 5.785-3.273 11.195-4.655 12.076-3.091.883 1.561-3.091 5.478-8.879 8.749m10.409-9.145c-1.271-2.248-7.586-1.082-14.105 2.603-6.519 3.685-10.775 8.49-9.508 10.737 1.269 2.247 7.586 1.081 14.103-2.602 6.521-3.685 10.777-8.494 9.51-10.738M26.973 41.587c.057-.367.182-.722.363-1.049a3.335 3.335 0 011.683-1.478 3.145 3.145 0 011.127-.229c.379-.005.744.058 1.084.185.348.132.664.329.936.585.271.262.496.589.646.97.152.386.211.797.189 1.203a3.114 3.114 0 01-.314 1.194 3.308 3.308 0 01-.774 1.018 3.317 3.317 0 01-1.142.672c-.43.146-.863.197-1.275.164a2.928 2.928 0 01-1.131-.336 2.737 2.737 0 01-.861-.728 2.618 2.618 0 01-.486-1.032 2.83 2.83 0 01-.045-1.139m-.309 1.269a3.063 3.063 0 001.508 1.997c.387.213.82.348 1.279.39.469.044.961-.011 1.449-.177.49-.167.93-.427 1.299-.761.371-.33.668-.729.877-1.162.209-.43.33-.891.352-1.359a3.182 3.182 0 00-.225-1.361 3.08 3.08 0 00-1.799-1.733 3.365 3.365 0 00-1.221-.203 3.577 3.577 0 00-1.262.26c-.414.166-.783.4-1.098.682a3.669 3.669 0 00-1.199 2.145c-.065.418-.058.852.04 1.282m1.209-.941l.238.903-.537-.302.299-.601zm1.305-2.355l.568.205-.898.347.33-.552zm.914 1.633a.471.471 0 01.262.29.543.543 0 01-.169.576.568.568 0 01-.402.148.485.485 0 01-.455-.344.557.557 0 01-.02-.206.55.55 0 01.064-.197.572.572 0 01.311-.274.607.607 0 01.213-.038.585.585 0 01.196.045m.834 2.197l-.353.633-.635-.285.988-.348zm1.273-2.592l-.283.623-.328-.904.611.281zm-4.863 2.543a.186.186 0 00.092.119.137.137 0 00.072.021.2.2 0 00.08-.01l1.627-.594.494 1.708a.199.199 0 00.043.081c.018.02.041.037.064.051a.201.201 0 00.08.024.297.297 0 00.09-.013l1.482-.511a.187.187 0 00.08-.046.255.255 0 00.055-.07.25.25 0 00.023-.086.217.217 0 00-.012-.092l-.574-1.709 1.729-.627a.24.24 0 00.08-.046.248.248 0 00.051-.068.21.21 0 00.023-.08.249.249 0 00-.014-.085l-.518-1.331a.159.159 0 00-.045-.065.192.192 0 00-.064-.042.232.232 0 00-.084-.015.278.278 0 00-.086.015l-1.648.627-.494-1.463a.155.155 0 00-.097-.097.14.14 0 00-.072-.013.224.224 0 00-.078.015l-1.295.513a.176.176 0 00-.066.043c-.02.017-.033.038-.049.059a.247.247 0 00-.024.069.304.304 0 00.004.075l.426 1.462-1.557.592a.266.266 0 00-.07.042.193.193 0 00-.049.063.186.186 0 00-.025.074.171.171 0 00.002.078l.324 1.332zm21.777-7.603a1.12 1.12 0 00-.318-.281 1.238 1.238 0 00-.881-.139 1.325 1.325 0 00-.434.17 1.276 1.276 0 00-.332.305 1.14 1.14 0 00-.193.392 1.08 1.08 0 00-.018.447 1.043 1.043 0 00.494.715c.129.08.275.135.432.161.158.026.324.024.49-.014a1.24 1.24 0 00.775-.515 1.05 1.05 0 00-.015-1.241m5.323-1.105a1.32 1.32 0 00-.334-.265 1.325 1.325 0 00-.408-.14 1.197 1.197 0 00-.434.009 1.05 1.05 0 00-.389.158.918.918 0 00-.405.647.929.929 0 00.035.412c.043.144.115.274.211.388a1.28 1.28 0 00.766.432c.148.024.305.022.455-.011.152-.035.287-.096.4-.177a.963.963 0 00.264-.299.887.887 0 00.115-.376 1.044 1.044 0 00-.276-.778m-3.903-.287c.15-.028.287-.084.404-.16a1.05 1.05 0 00.285-.274.917.917 0 00.143-.345.937.937 0 00-.025-.381.978.978 0 00-.188-.34 1.083 1.083 0 00-.309-.247 1.25 1.25 0 00-.387-.133 1.213 1.213 0 00-.817.151c-.115.07-.213.159-.287.257a.832.832 0 00-.156.721.878.878 0 00.178.354c.082.108.188.196.309.265a1.3 1.3 0 00.402.141c.145.023.3.024.448-.009m2.065 3.433a1.283 1.283 0 00-.789-.459 1.21 1.21 0 00-1.219.533 1.196 1.196 0 00-.146.916c.041.165.113.316.209.448a1.297 1.297 0 00.814.502c.164.026.334.02.502-.02a1.202 1.202 0 00.752-.569c.076-.133.125-.284.143-.441a1.225 1.225 0 00-.041-.481 1.384 1.384 0 00-.225-.429m2.39-2.222a1.11 1.11 0 01-.459.824 1.31 1.31 0 01-.483.218 1.462 1.462 0 01-.559.014 1.59 1.59 0 01-.516-.183 1.575 1.575 0 01-.416-.349 1.36 1.36 0 01-.254-.469 1.152 1.152 0 01.121-.947 1.21 1.21 0 01.332-.337 1.32 1.32 0 01.469-.193 1.52 1.52 0 011.015.16 1.43 1.43 0 01.676.763c.063.168.088.339.074.499m-1.83 3.299a1.435 1.435 0 01-1.082 1.238 1.53 1.53 0 01-1.17-.188 1.51 1.51 0 01-.708-1.543 1.408 1.408 0 01.582-.916c.15-.107.328-.188.521-.229.193-.047.389-.049.574-.019.186.032.363.098.525.193.162.093.311.215.428.365.121.149.215.323.273.518.059.194.077.39.057.581m-3.955-4.682a1.13 1.13 0 01-.213-.434 1.045 1.045 0 01.193-.875c.092-.123.211-.229.35-.309.139-.086.299-.147.473-.179.178-.031.35-.032.516-.003.166.025.324.082.467.158.143.076.27.178.373.296.102.122.184.261.229.415a1.042 1.042 0 01-.139.884 1.18 1.18 0 01-.344.334 1.285 1.285 0 01-.49.196 1.484 1.484 0 01-1.035-.162 1.282 1.282 0 01-.38-.321m.371 2.553a1.376 1.376 0 01-.205.498 1.577 1.577 0 01-.394.396 1.594 1.594 0 01-1.145.255 1.438 1.438 0 01-.527-.197 1.308 1.308 0 01-.395-.374 1.237 1.237 0 01-.205-.503 1.217 1.217 0 01.027-.542c.045-.174.127-.336.234-.477.109-.143.246-.268.4-.366.158-.098.334-.168.527-.209.193-.037.383-.039.561-.011.18.029.35.092.5.18a1.269 1.269 0 01.614.815c.043.182.045.362.008.535m-3.289 8.038a2.3 2.3 0 002.916 1.864 2.297 2.297 0 001.388-3.294 2.356 2.356 0 01-1.291 3.592 2.361 2.361 0 01-2.924-1.605 2.624 2.624 0 01-.089-.557m1.721-2.254a1.788 1.788 0 011.949.674c-.492-.287-1.15-.373-1.807-.185-.656.193-1.166.617-1.43 1.123a1.795 1.795 0 011.288-1.612m-2.67 2.468c-1.104.154-2.178.365-3.076.627-.9.26-1.92.658-2.934 1.119a4.214 4.214 0 00-.152-.274c1.039-.488 2.084-.903 2.992-1.168.906-.261 2.012-.471 3.154-.615 0 .104.006.21.016.311m-3.785-7.377c.492-.099.992-.176 1.494-.232a.31.31 0 01.352.273c.008.079.014.158.023.236a.315.315 0 01-.279.337c-.478.054-.953.129-1.426.221a.308.308 0 01-.365-.237c-.018-.078-.033-.153-.053-.234a.31.31 0 01.254-.364m-4.477 12.872a2.355 2.355 0 01-3.016-2.252 2.3 2.3 0 002.93 1.953 2.3 2.3 0 001.427-3.216 2.358 2.358 0 01-1.341 3.515m-1.281-4.418a1.79 1.79 0 011.951.674c-.492-.289-1.152-.374-1.809-.182-.654.19-1.166.613-1.43 1.121a1.791 1.791 0 011.288-1.613m-1.039-4.095a4.584 4.584 0 01-.459 1.832 4.877 4.877 0 01-1.186 1.571 4.97 4.97 0 01-1.781 1.024c-.055.02-.111.036-.164.052-.6.173-1.205.229-1.805.169a4.327 4.327 0 01-1.711-.55 4.022 4.022 0 01-1.946-2.682 4.372 4.372 0 01-.021-1.672 4.94 4.94 0 01.914-2.043 4.591 4.591 0 00-.801 1.887 4.176 4.176 0 00.025 1.617 3.905 3.905 0 001.871 2.606c.49.287 1.049.475 1.643.537.607.066 1.25.006 1.889-.207a4.823 4.823 0 001.709-.984 4.81 4.81 0 001.135-1.525 4.425 4.425 0 00.434-1.775 4.195 4.195 0 00-.328-1.754 3.955 3.955 0 00-.986-1.373 4.002 4.002 0 00-1.922-.946c.242.038.479.096.709.174a4.115 4.115 0 011.42.819c.441.391.785.867 1.021 1.414.248.571.361 1.179.34 1.809m-6.981-2.585c.326-.287.705-.53 1.127-.696a3.59 3.59 0 011.291-.268 3.46 3.46 0 011.252.203c.399.147.77.371 1.082.663.324.299.586.672.766 1.114.182.451.258.924.236 1.396a3.62 3.62 0 01-.361 1.399 3.813 3.813 0 01-.9 1.193c-.379.34-.83.61-1.336.781a3.633 3.633 0 01-1.488.182 3.362 3.362 0 01-1.315-.404 3.214 3.214 0 01-.988-.857 3.224 3.224 0 01-.553-1.197 3.384 3.384 0 01-.039-1.309c.07-.422.219-.83.426-1.201.207-.371.48-.712.8-.999m11.108-.115c-.449.172-.889.365-1.322.574a.313.313 0 01-.416-.135c-.035-.072-.072-.142-.109-.212a.31.31 0 01.152-.418c.453-.222.918-.422 1.387-.604a.309.309 0 01.408.173c.027.076.057.15.084.225a.318.318 0 01-.184.397m28.277-18.823c1.111-.431 2.092-1.199 2.76-2.514 0 0-1.375.299-3.342.472 2.307-.975 3.955-2.315 3.955-2.315a23.396 23.396 0 01-3.5 1.622c1.061-.702 1.9-1.773 2.275-3.449 0 0-1.096.582-2.77 1.198 2.021-1.655 3.277-3.54 3.277-3.54a23.232 23.232 0 01-3.641 3.152c1.061-1.048 1.799-2.523 1.826-4.709 0 0-.896.929-2.344 2.038 1.643-2.302 2.367-4.747 2.367-4.747a22.782 22.782 0 01-2.762 4.341c.773-1.406 1.164-3.188.807-5.52 0 0-.607 1.176-1.674 2.704 1.092-2.49 1.334-4.878 1.334-4.878a22.876 22.876 0 01-1.969 4.915c.518-1.769.6-3.856-.135-6.309 0 0-.363 1.465-1.102 3.441.438-3.058-.24-5.912-.24-5.912a22.68 22.68 0 01-.32 5.668A12.86 12.86 0 0060.822 0s-.256 3.278-1.164 7.163c-.266-1.053-.596-1.754-.596-1.754.01 3.151-1.15 5.818-1.824 6.841-.676 1.023-.625 1.838-.625 1.838-.195-.625.107-2.105.107-2.105-1.08 2.966-.975 2.982 1.273 5.982.906 1.209 1.055 2.384.91 3.354-.383 1.918-2.086 3.37-2.649 4.091a1.664 1.664 0 00-.318.689 4.927 4.927 0 01.475-2.699s-2.34 3.01-1.928 7.524c-1.793-1.459-3.699-1.945-5.576-1.399a5.951 5.951 0 00-.539.187.302.302 0 00-.172.175c2.049-.489 4.18.052 6.182 1.584.062.046.125.096.188.146.01.059.021.123.029.186-2.602-2.071-5.639-2.664-8.74-.647-.215.14-.381.253-.541.362.322 3.54.203 6.626-.346 8.926-.316 1.337-.779 2.387-1.361 3.122 1.465-2.063 1.941-6.396 1.4-11.834-.695.4-1.744.762-6.182 2.048-4.438 1.29-5.517 1.544-6.316 1.58 2.451 4.885 5.174 8.283 7.518 9.246-.887-.312-1.838-.951-2.82-1.908-1.693-1.65-3.447-4.191-5.072-7.355-.191-.002-.392-.011-.65-.015-3.799-.042-6.068 2.206-7.121 5.485-.025-.06-.051-.118-.072-.175.049-.161.104-.325.162-.48.871-2.366 2.381-3.963 4.373-4.648a.302.302 0 00-.236-.056 5.089 5.089 0 00-.557.134c-1.943.563-3.324 2.076-4.037 4.404-2.051-4.18-5.752-5.512-5.752-5.512a4.917 4.917 0 011.846 2.024 1.695 1.695 0 00-.639-.411c-.863-.307-3.076-.621-4.426-2.037-.645-.741-1.147-1.813-1.027-3.32.293-3.737.371-3.809-2.127-5.735 0 0 1.047 1.092 1.217 1.72 0 0-.395-.714-1.512-1.216s-3.523-2.137-5.203-4.801c0 0 .094.768.436 1.802a53.502 53.502 0 01-4.816-5.427c.334 2.313 1.187 4.207 2.301 5.753-.98-1.042-2.184-2.557-3.309-4.613 0 0 .955 2.774 2.961 5.121-1.68-1.274-2.773-2.316-2.773-2.316.695 2.465 1.883 4.184 3.268 5.401a22.795 22.795 0 01-4.293-3.099s1.482 1.888 3.736 3.406c-1.721-.72-2.863-1.388-2.863-1.388.949 2.164 2.234 3.459 3.639 4.235a23.06 23.06 0 01-4.658-2.191s1.924 1.676 4.543 2.742c-1.816-.163-3.072-.466-3.072-.466 1.195 1.832 2.607 2.683 4.066 3a23.031 23.031 0 01-4.764-.712s2.07.92 4.662 1.233c-1.744.377-2.982.474-2.982.474 1.215 1.215 2.498 1.67 3.77 1.693-1.09.238-2.369.429-3.824.506 0 0 2.111.25 4.578-.163-1.75.907-3.074 1.39-3.074 1.39 1.272.752 2.508.878 3.678.647a23.11 23.11 0 01-3.74 1.221s2.168-.141 4.553-1.019a30.376 30.376 0 01-2.629 1.874c1.568.451 2.971.174 4.197-.45a23.247 23.247 0 01-3.814 2.219s1.81-.493 3.799-1.633c-1.104 1.157-1.957 1.872-1.957 1.872a6.141 6.141 0 003.824-1 18.725 18.725 0 01-2.961 2.55s1.834-.865 3.457-2.428c-.947 1.364-1.772 2.233-1.772 2.233 1.654-.138 2.887-.754 3.799-1.601a14.686 14.686 0 01-2.766 2.708s1.746-.909 3.076-2.468c-.641 1.352-1.275 2.209-1.275 2.209 1.592-.287 2.668-.938 3.371-1.789-.395.715-.93 1.549-1.662 2.422 0 0 1.219-1.041 2.15-2.58-.307 1.488-.797 2.438-.797 2.438 1.642-.389 2.551-1.157 2.979-2.127-.18.747-.455 1.609-.867 2.553 0 0 .727-1.103 1.211-2.609.119 1.514-.098 2.471-.098 2.471 1.609-.476 2.242-1.369 2.295-2.479.127.811.205 1.809.152 2.962 0 0 .258-1.2.197-2.696.523 1.436.629 2.35.633 2.38.197-.112.533-.361.783-.798a21.107 21.107 0 00-.072 1.981c.225.769.469 1.462.726 2.099a3.343 3.343 0 01-.035.223l.051-.186c.842 2.066 1.815 3.507 2.652 4.739 1.281 1.891 2.215 3.267 1.635 5.625 1.018.777 2.045 1.123 2.922.922.965-.213 1.492-1.529 1.883-3.078-.104-.307-.137-1.846-.096-3.132.027-.868.105-2.232.322-3.02a3.51 3.51 0 01-.674-1.269c-.527-1.815.475-3.712 2.234-4.222 1.207-.35 2.459.039 3.297.901a3.27 3.27 0 00-5.286 3.374c.131.45.351.85.637 1.188-.492 1.399-.518 5.617-.35 5.839.25-1.054.451-2.181.693-3.126.031-.125.066-.246.098-.363a.359.359 0 00.014-.043c.01-.031.017-.062.027-.092l.016-.051c.01-.027.016-.059.027-.087.006-.017.012-.032.016-.052.018-.05.033-.102.053-.152.006-.016.01-.031.018-.05l.023-.068c.008-.021.016-.04.023-.062s.016-.041.025-.062c.008-.021.016-.038.023-.059l.027-.061a.439.439 0 01.029-.066c.008-.021.018-.041.027-.061.014-.032.027-.062.043-.089.008-.016.018-.029.023-.042.012-.022.021-.042.033-.062l.025-.043a.4.4 0 01.031-.055.18.18 0 00.023-.039l.043-.062c.008-.008.014-.018.02-.025.027-.037.057-.074.086-.107a3.274 3.274 0 002.295.18 3.278 3.278 0 002.332-2.738 33.622 33.622 0 012.005-.785c.004-.004.008-.004.012-.006l.348-.117c.016-.008.031-.012.045-.016.113-.04.223-.074.332-.108.023-.005.043-.015.066-.021l.326-.1.334-.092c.02-.004.039-.012.059-.016.113-.029.229-.061.346-.09a32.423 32.423 0 012.527-.509 3.269 3.269 0 003.436 1.064 3.257 3.257 0 001.84-1.379c.049.014.096.03.145.047.025.013.055.025.084.037l.002.002.059.027c.014.006.023.015.037.018.02.012.041.021.061.033.014.01.023.014.037.021a.627.627 0 01.062.036c.01.006.018.01.025.016.078.049.156.101.238.158.008.006.018.012.027.02l.074.054.025.019c.119.092.24.189.365.297.004.004.01.006.014.012l.094.08c0 .002.002.004.004.005.102.088.199.18.303.276-.002 0-.002-.003-.002-.003.707.666 1.48 1.512 2.256 2.266.023-.277-2.262-3.827-3.424-4.745a3.272 3.272 0 00-4.151-3.573 3.275 3.275 0 00-2.106 1.887c.32-1.04 1.119-1.893 2.213-2.212 1.756-.509 3.613.555 4.143 2.371.141.488.172.983.105 1.453.604.553 1.391 1.65 1.877 2.364.723 1.063 1.516 2.379 1.594 2.695 1.16 1.098 2.311 1.931 3.238 1.592.852-.302 1.535-1.146 1.98-2.352-1.75-1.678-1.697-3.338-1.629-5.62.062-1.95.133-4.318-.803-7.59a20.522 20.522 0 00-1-1.478c.32.108.603.124.775.114-.014-.027-.412-.854-.74-2.349a11.841 11.841 0 001.607 2.174 15.227 15.227 0 01-1.457-2.583c.641.909 1.652 1.326 3.268.862 0 0-.695-.692-1.404-2.03a11.945 11.945 0 002.418 1.554 15.628 15.628 0 01-2.1-1.692c.883.59 2.059.753 3.654.2 0 0-.918-.541-1.977-1.631a11.823 11.823 0 003.197 1.029 15.128 15.128 0 01-2.701-1.157c1.049.343 2.307.318 3.805-.298 0 0-.994-.382-2.262-1.176 1.961.604 3.924.435 3.924.435a14.644 14.644 0 01-3.787-.806c1.225.226 2.594.084 4.066-.68 0 0-1.16-.296-2.691-.94 2.207.452 4.219.202 4.219.202a18.513 18.513 0 01-3.865-.571 6.137 6.137 0 003.766-1.2s-1.105-.15-2.658-.535c2.293-.104 4.084-.654 4.084-.654a22.96 22.96 0 01-4.408.167c1.369-.13 2.701-.644 3.787-1.863 0 0-1.348.018-3.225-.18 2.482-.534 4.391-1.574 4.391-1.574a23.565 23.565 0 01-3.812.968M23.662 46.811c.023.549.066 1.108.125 1.669.125 1.181.355 2.301.664 3.341l-.004-.008c.01.037.021.073.035.111.025.082.049.168.076.25.012.041.027.082.041.125.025.083.053.167.08.248l.043.117.088.248a12.471 12.471 0 01.137.357c.014.033.025.069.041.104.031.082.067.164.102.248.01.029.027.062.039.092.033.085.07.168.109.25.01.028.024.055.037.082a11.37 11.37 0 00.148.32c.041.087.084.174.125.258l.029.055c.043.09.09.178.135.264.004.014.016.027.023.042.047.089.096.178.145.268l.018.03c.051.09.104.18.154.27l.01.016c.055.092.111.184.168.275v.001c.709 1.134 1.504 2.05 2.309 2.696 1.193-4.02-3.098-4.458-4.877-11.729m34.957-10.146c2.393 7.094-1 9.76 2.162 12.519.898-2.632.695-6.87-1.375-11.042-.248-.508-.511-1-.787-1.477M118.963 84.434c.137-.697-.178-1.253-.945-1.665a10.635 10.635 0 00-2.951-1.148c-.121 0-.174-.054-.152-.159-.029-.264-.193-.396-.494-.396h-.111c-.326 0-.592.169-.801.501l-.705.199c-.051 0-.176.191-.371.574l-.019.107c-.02.098.242.259.791.483l-.139.986c-.24 1.689-.324 2.832-.252 3.424l-.004.015c-.326.237-.494.374-.506.413l-.008.035.045.057c.002.26.037.422.109.482.219.048.34.089.361.126.096 0 .148.306.154.914-.135 1.255.049 1.88.553 1.88.289-.097.481-.384.576-.86l.031-.159c.09-.454.105-1.163.051-2.134l.953-.34a13.595 13.595 0 002.217-1.128c.912-.629 1.447-1.339 1.603-2.133l.014-.074zm-1.289.073a.639.639 0 01-.082.232c-.309.594-.781 1.062-1.422 1.398-.568.3-1.269.579-2.105.842-.102-.354.027-1.754.385-4.191l.004-.019.053.019c2.246.475 3.303 1.042 3.172 1.701l-.005.018zm3.642-2.751l-.775 3.279-.066.341c-.203 1.023-.326 2.393-.365 4.102l-.047.234c-.059.282-.156.444-.299.483-.102 0-.295.041-.58.124a1.642 1.642 0 00-.315-.27c.068-2.037.231-3.709.49-5.016l.123-.627c.174-.885.436-1.804.785-2.76-.041 0-.047-.154-.019-.464l-.127-.11c.074 0 .195-.268.363-.804.242-.157.447-.234.617-.234h.074c.234 0 .332.095.293.286.001.444-.05.918-.152 1.436zm5.106 8.323l.021-.108c.031-.165-.029-.4-.178-.697-.262-.426-.42-.961-.48-1.596-.037-1.12-.035-1.79.01-2.006 0-.395-.121-.592-.365-.592h-.09c-.197 0-.418.078-.656.232-.797.31-1.518.688-2.164 1.13-1.094.993-1.707 1.831-1.842 2.507l-.014.072-.029.232c.057.503.332.754.832.754.514 0 1.016-.202 1.504-.609.394-.354.885-.875 1.471-1.559l.084.144c.184.832.324 1.396.424 1.685.193.409.449.67.768.789.055 0 .18-.057.383-.162.186 0 .291-.07.321-.216zm-3.311-2.044c-.404.503-.754.754-1.055.754h-.018l-.016-.017c.096-.479.363-.933.805-1.362.689-.571 1.145-.888 1.369-.949h.035l.018.017c-.073.37-.45.889-1.138 1.557zm8.834-3.806c-.32 2.256-.572 3.841-.754 4.767l-.029.141-.316 2.549-.037.283c-.25 1.184-.885 1.973-1.908 2.367-.221.07-.438.107-.648.107-.783 0-1.488-.454-2.115-1.362-.148-.251-.199-.483-.158-.7.174-.143.342-.213.506-.213.125 0 .35.143.672.43.037.037.143.059.318.07l.785.521c.113.046.213.07.299.07h.037c.383 0 .703-.333.955-1.003.131-.355.256-.836.377-1.452a17.02 17.02 0 00.299-3.279c-.26.23-.668.686-1.23 1.362-.475.405-.791.608-.951.608-.199.084-.465.127-.801.127h-.074c-.195 0-.33-.252-.406-.754a4.309 4.309 0 01.082-.877c.148-.75.469-1.628.963-2.633.205-.289.393-.432.564-.432h.129c.137 0 .281.078.436.232l-.012.056c-.057.284-.301.901-.732 1.845a4 4 0 00-.295.932l-.041.304h.055c.164 0 .441-.191.832-.573.053 0 .154-.131.301-.394.918-1.219 1.404-1.977 1.465-2.275.082-.162.145-.355.188-.574l.008-.033a2.57 2.57 0 00.453-.432h.406a.4.4 0 01.377.215zm10.151 1.236c-.16.819-.789 2.066-1.883 3.745-.58.819-1.285 1.392-2.113 1.72-.17.072-.35.107-.539.107h-.055c-.662 0-1.258-.284-1.787-.859-.818-1.41-1.07-2.912-.758-4.496l.039-.198c.299-1.512.941-2.742 1.93-3.693.586-.477 1.156-.717 1.711-.717h.129c.791 0 1.344.503 1.66 1.506.086.451.105.773.068.967-.316.319-.496.494-.545.521-.127.071-.213.108-.262.108h-.018c-.182 0-.353-.316-.516-.951-.072-.447-.231-.733-.477-.859l-.082-.053c-.416.098-.746.271-.988.518-.609.59-1.018 1.414-1.227 2.473l-.035.182c-.315 1.591-.117 2.935.588 4.031.23.297.498.448.799.448.688 0 1.482-.819 2.389-2.457.195-.368.41-.871.646-1.504-.361.048-1.121.186-2.279.411l.01-.052c.023-.117-.074-.212-.293-.288-.096-.08-.137-.156-.121-.232l.002-.02c.092-.455.744-.771 1.963-.949a14.702 14.702 0 011.834-.125c.184 0 .268.037.256.108.003.172-.011.375-.046.608zm4.508 2.213c-.035-1.12-.033-1.79.01-2.006 0-.395-.123-.592-.363-.592h-.092c-.199 0-.418.078-.656.232-.799.31-1.52.688-2.164 1.13-1.094.993-1.709 1.831-1.842 2.507l-.014.072-.027.232c.055.503.33.754.83.754.514 0 1.016-.202 1.506-.609.393-.354.883-.875 1.471-1.559l.082.144c.184.832.324 1.396.424 1.685.193.409.451.67.768.789.053 0 .182-.057.385-.162.184 0 .289-.07.32-.216l.02-.108c.033-.165-.025-.4-.176-.697-.262-.426-.424-.962-.482-1.596zm-2.674.357c-.404.503-.754.754-1.053.754h-.021l-.012-.017c.094-.479.361-.933.803-1.362.689-.571 1.145-.888 1.369-.949h.037l.014.017c-.071.37-.452.889-1.137 1.557zm9.599-.169c.09.668.211 1.308.361 1.917-.008.045-.1.129-.271.253-.012.058-.043.089-.092.089-.594 0-.932-.318-1.012-.951-.059-.677-.139-1.145-.242-1.397h-.018c-.879 1.576-1.447 2.365-1.703 2.365h-.168c-.461 0-.643-.467-.537-1.398.076-.74.084-1.111.033-1.111-.188.166-.449.594-.791 1.291-.375.789-.736 1.184-1.08 1.184-.147 0-.297-.062-.445-.182l.035-.089.019-.087-.088-.127c.119-.228.205-.463.25-.699l.199-1.201.074-.287c.135 0 .225-.107.268-.321l.021-.108c.006-.027.113-.074.32-.143.047-.071.086-.108.117-.108l.223.089c.068-.011.326-.225.771-.643.174-.12.277-.179.314-.179.594 0 .93.382 1.01 1.145l.039.183h.037c.168-.24.359-.557.574-.951.119-.163.236-.284.35-.358l.162.018.182-.178h.096c.4.066.605.15.613.249.145.338.27.918.379 1.735zm10.287.189c-.375-.188-1.006-.39-1.889-.605-.508-.145-.807-.322-.898-.529.018-.098.486-.215 1.404-.35.307-.07.516-.171.633-.303.008-.047-.01-.181-.051-.398-.004-.213-.23-.318-.678-.318h-.152c-.334 0-.715.09-1.139.268-.84.326-1.324.795-1.443 1.408l-.012.062c-.008.042.011.08.013.12-.143.1-.299.221-.48.384-.812.873-1.494 1.311-2.047 1.311-.414 0-.705-.21-.875-.629l.004-.017c1.033-.368 1.607-.853 1.729-1.452.025-.137.025-.334.004-.592-.246-.81-.689-1.217-1.328-1.217-.324 0-.723.113-1.195.339-.424.15-.695.521-.811 1.112l-.027.144-.188 1.415-.008.037c.637 1.266 1.402 1.898 2.305 1.898h.184c.154 0 .338-.025.551-.07.729-.231 1.316-.621 1.762-1.166.019-.1.119-.164.297-.197.059-.138.125-.257.201-.359a7.66 7.66 0 00.364-.394c.194.115.429.224.749.323.883.207 1.481.402 1.793.59l-.002.019a1.494 1.494 0 01-.934.306c-.43 0-.939-.148-1.527-.449-.291.192-.459.4-.502.624l-.018.091a.53.53 0 00.094.434c-.035.181.51.308 1.639.384.283 0 .596-.026.939-.082 1.17-.208 1.816-.624 1.94-1.245.072-.372-.061-.671-.401-.897zm-8.127-1.103c.045-.226.117-.396.215-.518.023-.119.127-.18.312-.18l.143.018c.309.134.426.385.352.754a1.247 1.247 0 01-.144.357c-.33.215-.566.321-.709.321-.182-.144-.237-.392-.169-.752zm10.387 2.357l-.008.037c-.068.341-.365.614-.902.822l-.186.02c-.242 0-.387-.137-.438-.414l.008-.125.014-.07c.053-.275.244-.489.57-.648l.42-.071h.072c.345.081.493.231.45.449zm21.34-1.631c-.037-1.12-.035-1.79.008-2.006.002-.395-.121-.592-.363-.592h-.092c-.195 0-.414.078-.652.232a10.52 10.52 0 00-2.16 1.13c-.294.267-.547.52-.771.764-.205.079-.481.275-.827.586-.812.873-1.496 1.311-2.051 1.311-.412 0-.703-.21-.873-.629l.002-.017c1.035-.368 1.609-.853 1.729-1.452.027-.137.031-.334.006-.592-.246-.81-.688-1.217-1.33-1.217-.322 0-.721.113-1.191.339-.424.15-.693.521-.812 1.112l-.024.119c-.295-.167-.778-.303-1.499-.398-.051 0-.059-.161-.033-.483.387-2.243.617-3.557.693-3.942l.184-1.307c.029-.204.033-.322.016-.359-.004-.25-.185-.377-.555-.377h-.164c-.338.088-.553.356-.641.807l-.029.144c-.107.866-.387 2.707-.838 5.519-.615.11-1.346.162-2.193.162h-.111l.041-.483c.312-2.368.537-3.892.672-4.569l.191-.788c.029-.149.012-.269-.057-.358.021-.119-.156-.186-.537-.197l-.223.017c-.234 0-.467.425-.695 1.274l-.008.035a131.298 131.298 0 00-.684 5.107c-.008.037-.111.062-.309.071h-.85c-.148 0-.268.208-.355.627-.012.06 0 .119.041.179.094.191.424.287.994.287l.188-.018.135-.027c.057.039.014.486-.129 1.34-.209.867-.477 2.235-.315 2.235l.227-.035.547.035c.227 0 .391-.329.498-.986.051-.24.379-1.742.502-2.634l1.906-.07.375.017c.021.003.01.253-.039.752-.223 1.685-.223 1.477-.24 2.016-.027.142.129.214.475.214.316 0 .568-.084.752-.251l.002-.019.02-.179c.256-1.999.275-1.798.289-2.032.088-.404.115-.609.076-.609l.043-.035-.002.018c-.012.049.391.091 1.201.125h.111c.083 0 .154-.01.222-.024l-.083.643-.01.037c.633 1.266 1.402 1.898 2.305 1.898h.184c.154 0 .34-.025.551-.07a3.726 3.726 0 001.422-.81c.059.496.333.745.826.745.516 0 1.02-.202 1.504-.609.395-.354.883-.875 1.469-1.559l.084.144c.184.832.324 1.396.424 1.685.193.409.449.67.768.789.051 0 .18-.057.381-.162.186 0 .291-.07.318-.216l.022-.108c.033-.165-.025-.4-.174-.697-.266-.429-.424-.965-.485-1.599zm-8.293-.726c.043-.226.115-.396.213-.518.023-.119.129-.18.312-.18l.145.018c.305.134.422.385.35.754a1.204 1.204 0 01-.146.357c-.326.215-.565.321-.709.321-.183-.144-.237-.392-.165-.752zm5.623 1.083c-.404.503-.754.754-1.053.754h-.016l-.018-.017c.096-.479.363-.933.803-1.362.688-.571 1.143-.888 1.367-.949h.037l.016.017c-.073.37-.45.889-1.136 1.557zm6.453-7.713a7.687 7.687 0 01-.154 1.434l-.775 3.279-.068.341c-.201 1.023-.324 2.393-.367 4.102l-.045.234c-.057.282-.156.444-.299.483-.102 0-.295.041-.58.124a1.654 1.654 0 00-.316-.27c.07-2.037.234-3.709.494-5.016l.121-.627c.176-.885.438-1.804.785-2.76-.041 0-.047-.154-.019-.464l-.125-.11c.072 0 .193-.268.361-.804.242-.157.449-.234.617-.234h.074c.234.002.333.097.296.288zm9.832 2.303l-.021.107c-.053.269-.629.658-1.725 1.166-.59.327-1.52.8-2.793 1.414-.067 0-.301.09-.699.27l-.09.269c-.055.286.121.538.533.753 1.043.928 1.859 1.568 2.449 1.918.582.405 1.037.61 1.359.61.6.009.891.063.871.16.094.076.123.22.08.43-.389.165-.75.249-1.084.249h-.164c-.863 0-1.938-.543-3.225-1.63-.562-.395-.875-.591-.935-.591l-.035.09-.019.09c-.041.201-.096.855-.166 1.971l-.08.411a.764.764 0 01-.547.233h-.111c-.275-.036-.41-.106-.4-.215l.135-2.363c.121-.758.121-1.169.002-1.24-.053-.087-.275-.29-.672-.607a.565.565 0 01-.125-.484l.025-.143c.023-.112.338-.273.947-.482l.355-.217.051-.359.082-.41c.123-.619.383-1.346.781-2.187a.796.796 0 01.354-.089h.164c.32 0 .463.089.426.268l-.065.342c-.029.139-.215.678-.559 1.611l-.098.395c1.043-.391 2.152-.923 3.326-1.595l.867-.555c.582.053.851.188.806.41zm1.795 1.121v-.073l.02-.106c.156-.287.422-.43.805-.43h.111c.311 0 .486.077.525.232l.018.197-.002.018c-.051.242-.332.403-.854.483h-.131c-.361-.032-.525-.139-.492-.321zm.834 1.397a13.456 13.456 0 01-.273 2.508l-.102.521-.42 1.936c-.107.07-.268.124-.475.162l-.174.141h-.021c-.106 0-.191-.076-.246-.232-.016.072-.035.107-.061.107-.152-.158-.176-.504-.072-1.038l.602-2.206c.039-.315.111-.754.225-1.324.1-.503.328-.754.686-.754.245-.001.357.059.331.179zm5.192.681l.039-.197.33-1.576c.142-.867.164-1.34.057-1.416-.146-.06-.211-.137-.193-.234h-.203a.45.45 0 00-.195.055l-.697.449-.1.5c-.084.439-.203 1.378-.354 2.812-.027.146-.119.246-.279.306-.441.054-1.088.376-1.928.968-.902.76-1.385 1.309-1.453 1.646l-.021.11c-.02.107-.031.315-.029.628-.004.018.127.135.391.356.791 0 1.523-.156 2.197-.465.59-.329 1.008-.692 1.248-1.093.16.203.26.411.305.627.065.549.312.824.74.824h.297c.266-.288.406-.467.422-.537l.004-.129c.023-.13-.057-.331-.248-.606-.391-1.163-.5-2.171-.33-3.028zm-1.998 2.077c-.504.827-1.024 1.235-1.555 1.235l-.162-.016c.012-.064.147-.254.408-.574.348-.435.836-.748 1.457-.93-.01.058-.061.155-.148.285zm7.716 1.048c-.123.621-.77 1.037-1.941 1.245a5.82 5.82 0 01-.938.082c-1.129-.075-1.674-.203-1.639-.384a.521.521 0 01-.092-.434l.018-.091c.043-.224.209-.432.5-.624.586.301 1.096.449 1.525.449.359 0 .67-.102.938-.306l.002-.019c-.316-.188-.912-.383-1.795-.59-.879-.271-1.283-.602-1.205-.99l.012-.062c.121-.613.604-1.082 1.447-1.408.424-.178.799-.268 1.137-.268h.152c.447 0 .672.105.678.318.043.218.059.352.051.398-.117.132-.328.232-.633.303-.916.135-1.385.252-1.404.35.09.207.391.385.9.529.881.216 1.514.417 1.887.605.338.229.475.528.4.897zm1.858.36l-.006.037c-.068.341-.367.614-.9.822l-.19.02c-.238 0-.387-.137-.434-.414l.004-.125.016-.07c.055-.275.244-.489.57-.648l.42-.071h.076c.34.081.487.231.444.449z"/><path d="M174.725 56.562v17.322c0 .925-.291 1.67-.875 2.24-.584.57-1.338.855-2.26.855-.924 0-1.666-.285-2.234-.855-.57-.57-.852-1.315-.852-2.24V56.562c0-.923.281-1.669.852-2.238.568-.57 1.311-.854 2.234-.854 2.088 0 3.135 1.032 3.135 3.092zm-3.135-12.911c-1.045 0-1.943.375-2.697 1.129-.752.754-1.129 1.65-1.129 2.696 0 1.045.377 1.944 1.129 2.697.754.754 1.652 1.128 2.697 1.128s1.941-.374 2.697-1.128c.752-.753 1.129-1.652 1.129-2.697 0-1.046-.377-1.942-1.129-2.696-.756-.754-1.652-1.129-2.697-1.129zm-56.838 9.819c-2.797 0-5.156.956-7.076 2.864-1.92 1.909-2.881 4.265-2.881 7.066v10.485c0 .924.283 1.67.854 2.239.566.57 1.312.855 2.234.855.922 0 1.676-.285 2.26-.855.584-.57.875-1.316.875-2.242V63.391c0-1.047.346-1.902 1.037-2.565.691-.662 1.558-1.04 2.605-1.134 2.121-.185 3.18-1.228 3.18-3.136 0-.889-.291-1.629-.877-2.211-.582-.583-1.321-.875-2.211-.875zm-17.367 6.361c2.059 0 3.088-1.045 3.088-3.134 0-.922-.283-1.667-.854-2.236-.568-.567-1.314-.853-2.234-.853h-6.658v-2.442c0-.923-.293-1.676-.875-2.26-.584-.583-1.338-.875-2.26-.875-.922 0-1.666.292-2.236.875-.568.584-.852 1.337-.852 2.26v15.857c0 2.827.953 5.192 2.857 7.098 1.906 1.906 4.272 2.859 7.1 2.859h2.924c2.059 0 3.088-1.045 3.088-3.137 0-.92-.283-1.666-.854-2.234-.568-.567-1.314-.852-2.234-.852h-2.922l-.002-.001c-1.045 0-1.932-.36-2.648-1.083-.725-.722-1.086-1.605-1.086-2.649v-7.192h6.658zm42.437-3.045c2.275 2.271 3.41 5.077 3.41 8.415v8.672c0 .928-.291 1.676-.873 2.248-.584.572-2.26.859-2.26.859h-8.666c-3.318 0-6.107-1.141-8.365-3.42-2.26-2.277-3.389-5.08-3.389-8.406 0-3.324 1.129-6.12 3.389-8.383 2.258-2.262 5.047-3.395 8.365-3.395 3.319.001 6.116 1.138 8.389 3.41zm-2.81 8.392c0-1.55-.545-2.865-1.635-3.951-1.096-1.084-2.406-1.626-3.943-1.626s-2.844.54-3.918 1.621c-1.076 1.08-1.613 2.39-1.613 3.933 0 1.543.537 2.861 1.613 3.959 1.074 1.096 2.381 1.643 3.918 1.643h5.578v-5.579zm23.5-21.02c-.924 0-1.668.284-2.236.852-.559.559-.844 1.287-.854 2.186v26.745c.01.898.295 1.627.854 2.185.568.569 1.312.854 2.236.854.922 0 1.674-.285 2.258-.854.584-.567.877-1.314.877-2.235V47.247c0-2.058-1.045-3.089-3.135-3.089zm26.4 7.154c.719-.725 1.603-1.088 2.648-1.088h1.625c2.029 0 3.09-1.324 3.09-3.104 0-1.793-1.031-3.149-3.09-3.149h-1.625c-2.826 0-5.193.957-7.096 2.872-1.906 1.915-2.859 4.293-2.859 7.136v19.854c0 .925.283 1.682.852 2.268.568.587 1.315.881 2.238.881.92 0 1.672-.294 2.258-.881.584-.586.875-1.343.875-2.268v-7.024h4.707c.924 0 1.668-.286 2.236-.854.568-.574.854-1.323.854-2.249 0-2.1-1.029-3.15-3.09-3.15h-4.707v-6.575c0-1.054.361-1.942 1.084-2.669zm27.832 24.791c-.57.584-1.314.877-2.234.877h-4.105c-3.316 0-6.106-1.141-8.365-3.42-2.26-2.277-3.389-5.08-3.389-8.406 0-3.324 1.129-6.12 3.389-8.383 2.26-2.262 5.049-3.395 8.365-3.395 3.35 0 6.195 1.202 8.527 3.607.615.649.924 1.357.924 2.127 0 1.019-.445 1.866-1.338 2.545l-9.422 8.947c.416.098.852.152 1.309.152h4.105c.92 0 1.664.285 2.234.853.568.569.852 1.313.852 2.236 0 .923-.283 1.677-.852 2.26zm-11.803-10.072l6.656-6.297a5.423 5.423 0 00-1.197-.134c-1.535 0-2.842.54-3.916 1.621-1.072 1.08-1.611 2.39-1.611 3.933 0 .302.027.593.068.877zM56.705 56.984c.615.649.924 1.357.924 2.127 0 1.019-.447 1.866-1.338 2.545l-9.424 8.947c.418.098.852.152 1.31.152h4.104c.92 0 1.666.285 2.236.853.567.569.85 1.313.85 2.236 0 .921-.283 1.675-.85 2.259-.57.584-1.316.877-2.236.877h-4.104c-3.318 0-6.105-1.141-8.367-3.42-2.258-2.277-3.389-5.08-3.389-8.406 0-3.324 1.131-6.12 3.389-8.383 2.262-2.262 5.049-3.395 8.367-3.395 3.35.001 6.196 1.203 8.528 3.608zm-7.334 2.75c-.4-.09-.799-.134-1.199-.134-1.535 0-2.84.54-3.914 1.621-1.074 1.08-1.611 2.39-1.611 3.933 0 .302.027.593.068.877l6.656-6.297zm25.83 4.833l4.775-5.469c.463-.569.816-1.073 1.047-1.497a3.02 3.02 0 00.375-1.449c0-.728-.318-1.355-.947-1.863-.604-.488-1.4-.865-2.301-.865-.793 0-1.436.344-1.981.764-.506.396-1.08 1.018-1.756 1.904l-3.594 4.938-3.701-4.941c-.66-.857-1.227-1.469-1.729-1.873-.543-.438-1.23-.838-2.041-.838-.92 0-1.682.432-2.264.93-.602.514-.904 1.135-.904 1.846 0 .867.451 1.832 1.373 2.941l4.777 5.474-5.418 6.761c-.904 1.215-1.344 2.146-1.344 2.848 0 .713.324 1.346.965 1.88.619.519 1.424.925 2.297.925.795 0 1.418-.359 1.945-.781.488-.391 1.062-1.018 1.756-1.923l4.287-5.235L75 74.282c.65.859 1.24 1.499 1.756 1.901.557.436 1.258.8 2.051.8.887 0 1.631-.394 2.244-.89.635-.514.957-1.144.957-1.873 0-.687-.455-1.632-1.389-2.89l-5.418-6.763zm144.475-8.174h.445v-2.869h1.098v-.387h-2.639v.387h1.096v2.869zm2.359-1.922c0-.076-.002-.198-.006-.36a16.641 16.641 0 01-.006-.365v-.101l.938 2.748h.436l.932-2.748c0 .178-.002.342-.004.496-.006.153-.006.264-.006.33v1.922h.422v-3.256h-.627l-.928 2.752-.939-2.752h-.631v3.256h.42v-1.922zm15.559 26.384c.598.68.527 1.715-.154 2.311l-10.799 9.455a1.634 1.634 0 01-2.312-.154l-9.455-10.799a1.636 1.636 0 01.154-2.31l10.801-9.457a1.638 1.638 0 012.311.154l9.454 10.8zm-16.703-1.287a1.465 1.465 0 10-.137 2.067c.609-.534.67-1.457.137-2.067zm3.16 3.608a1.465 1.465 0 00-2.066-.137 1.464 1.464 0 102.066.137zm3.158 3.607a1.468 1.468 0 00-2.067-.139 1.473 1.473 0 00-.139 2.071 1.47 1.47 0 002.068.134 1.461 1.461 0 00.138-2.066zm.518-12.947a1.466 1.466 0 00-2.066-.138 1.468 1.468 0 00-.137 2.067 1.464 1.464 0 002.203-1.929zm3.158 3.607a1.465 1.465 0 10-2.206 1.927 1.465 1.465 0 002.206-1.927zm3.158 3.608a1.463 1.463 0 10-.137 2.064c.61-.531.672-1.458.137-2.064zm6.318-7.283l-7.012 1.243-5.004-5.716c-.667-.764-1.936-.85-2.699-.18l-2.037 1.783-1.788-10.086a1.638 1.638 0 011.328-1.898l14.135-2.506a1.64 1.64 0 011.9 1.328l2.504 14.134a1.632 1.632 0 01-1.327 1.898zM227.506 62.39a1.463 1.463 0 10-2.886.513 1.463 1.463 0 002.886-.513zm5.691 3.863a1.465 1.465 0 00-2.883.511 1.465 1.465 0 002.883-.511zm5.694 3.861a1.464 1.464 0 10-2.887.508 1.464 1.464 0 002.887-.508z" fill="#185a7d"/></svg>